<svg t="1748512304503" class="icon" viewBox="0 0 1024 1024" version="1.1" xmlns="http://www.w3.org/2000/svg" p-id="1478" width="200" height="200"><path d="M924.6 334.6c-22.4-52.9-54.4-100.4-95.2-141.2-40.8-40.8-88.3-72.8-141.2-95.2-54.8-23.2-113-34.9-172.9-34.9s-118.1 11.8-172.9 35c-52.9 22.4-100.4 54.4-141.2 95.2-40.8 40.8-72.8 88.3-95.2 141.2-23.2 54.8-34.9 113-34.9 172.9 0 70.4 16.8 140 48.6 202.3l-54 200.4c-3.7 13.8 0.2 28.6 10.3 38.7 7.6 7.6 17.8 11.7 28.3 11.7 3.5 0 7-0.5 10.4-1.4L316.5 905c61.3 30.7 129.7 46.8 198.7 46.8 60 0 118.1-11.8 172.9-34.9 52.9-22.4 100.4-54.4 141.2-95.2s72.8-88.3 95.2-141.2c23.2-54.8 34.9-113 34.9-172.9s-11.6-118.2-34.8-173zM515.3 871.8c-61.1 0-121.6-15.4-174.8-44.6-5.9-3.3-12.6-4.9-19.2-4.9-3.5 0-7 0.5-10.4 1.4L161.1 864l40-148.6c2.7-10.1 1.4-20.8-3.7-30-30.3-54-46.3-115.5-46.3-177.8 0-200.8 163.4-364.2 364.2-364.2 200.8 0 364.2 163.4 364.2 364.2 0.1 200.8-163.3 364.2-364.2 364.2z" fill="#231815" p-id="1479"></path><path d="M471.3 649.5h84.1v84.1h-84.1zM626.6 328.2c-28.5-25.2-66.9-37.9-115.2-37.9-45.9 0-83 12.5-111.2 37.4-28.2 24.9-43.5 55.3-45.6 91l77.2 9.6c5.4-24.9 15.3-43.5 29.6-55.7 14.4-12.2 32.2-18.3 53.6-18.3 22.1 0 39.8 5.8 52.8 17.5 13.1 11.7 19.6 25.7 19.6 42.1 0 11.8-3.7 22.6-11.1 32.3-4.8 6.2-19.5 19.3-44 39.2-24.5 20-40.9 37.9-49.1 53.9-8.2 16-12.3 36.3-12.3 61.1 0 2.4 0.1 9.1 0.3 20.1h76.3c-0.4-23.1 1.5-39.2 5.8-48.2s15.3-20.8 33.1-35.6c34.3-28.5 56.7-51.1 67.2-67.6 10.5-16.6 15.7-34.1 15.7-52.7 0.1-33.6-14.1-62.9-42.7-88.2z" fill="#231815" p-id="1480"></path></svg>